<svg xmlns="http://www.w3.org/2000/svg" viewBox="2 5 42 46">
    <path fill="#4caf50"
          d="M 23.18 28.68 c -3.37 0 -6.11 -4.89 -6.11 -10.91 c 0 -3.59 0.98 -6.78 2.48 -8.77 c -6.08 2.55 -10.55 11.48 -10.55 22.09 c 0.14 -0.01 0.29 -0.01 0.44 -0.01 c 5.26 0 9.66 3.73 10.65 8.7 c 0.44 -3.41 1.66 -5.86 3.09 -5.86 s 2.65 2.45 3.09 5.86 c 1 -4.96 5.39 -8.7 10.65 -8.7 c 0.15 0 0.29 0 0.44 0.01 c 0 -10.61 -4.47 -19.54 -10.55 -22.09 c 1.5 1.99 2.48 5.18 2.48 8.77 c 0 6.02 -2.74 10.91 -6.11 10.91 z M 23.18 36.54 c -1.02 0 -1.85 2.74 -1.85 6.11 s 0.83 6.11 1.85 6.11 s 1.85 -2.74 1.85 -6.11 s -0.83 -6.11 -1.85 -6.11 z"/>
</svg>