<svg xmlns="http://www.w3.org/2000/svg" viewBox="2 3 21 25">
    <path fill="#f44336"
          d="M12.364 14.855c-0.84 1.455-1.68 2.909-2.519 4.364 1.68 0 3.359 0 5.039 0-0.84-1.455-1.68-2.909-2.519-4.364z M16.727 19.679c2.169 1.256 4.339 2.511 6.508 3.767-1.086-1.881-2.172-3.762-3.258-5.643-0.252 0.145-0.504 0.291-0.756 0.436-0.349-0.605-0.698-1.209-1.047-1.814 0.582-1.008 1.165-2.016 1.747-3.024-1.164 0-2.329 0.001-3.493 0.001-0.349-0.605-0.698-1.209-1.047-1.814 0.252-0.145 0.504-0.291 0.756-0.436-1.086-1.881-2.172-3.762-3.258-5.643 0.003 2.507 0.005 5.013 0.008 7.52 1.28 2.217 2.56 4.434 3.84 6.651z M8.524 20.586c-2.172 1.251-4.344 2.502-6.516 3.753 2.172 0 4.344 0 6.516 0 0-0.291 0-0.582 0-0.873 0.698 0 1.396 0 2.095 0 0.582 1.009 1.164 2.017 1.745 3.025 0.582-1.009 1.164-2.017 1.745-3.025 0.698 0 1.396 0 2.095 0 0 0.291 0 0.582 0 0.873 2.172 0 4.344 0 6.516 0-2.172-1.251-4.344-2.502-6.516-3.753-2.56 0-5.12 0-7.68 0z M11.84 13.028c0.003-2.507 0.005-5.013 0.008-7.52-1.086 1.881-2.172 3.762-3.258 5.643 0.252 0.145 0.504 0.291 0.756 0.436-0.349 0.605-0.698 1.209-1.047 1.814-1.164-0-2.329-0.001-3.493-0.001 0.582 1.008 1.165 2.016 1.747 3.024-0.349 0.605-0.698 1.209-1.047 1.814-0.252-0.145-0.504-0.291-0.756-0.436-1.086 1.881-2.172 3.762-3.258 5.643 2.169-1.256 4.339-2.511 6.508-3.767 1.28-2.217 2.56-4.434 3.84-6.651z"/>
</svg>