<svg xmlns="http://www.w3.org/2000/svg" viewBox="9 6 30 50">
    <path fill="#ffc107"
          d="M 18.68 35.69 c 1.13 -1.86 2.95 -3.07 5.03 -3.07 s 3.88 1.21 5.03 3.07 c -0.9 -3.72 -2.81 -6.31 -5.03 -6.31 s -4.13 2.57 -5.03 6.31 z M 28.86 40.99 c 0 -3.62 -2.3 -6.59 -5.15 -6.59 s -5.15 2.95 -5.15 6.59 s 2.3 6.59 5.15 6.59 c 2.84 0 5.15 -2.95 5.15 -6.59 z M 27.84 47.29 c 1.56 -1.51 2.57 -3.88 2.57 -6.5 c 0 -0.9 -0.12 -1.76 -0.32 -2.57 c 0.04 -0.73 0.25 -2.24 -0.35 -4.45 c -0.61 -2.23 -2.02 -3.8 -2.88 -4.68 c 1.31 -0.32 2.46 -1.38 3.24 -2.72 s 1.69 -3.48 1.99 -7.1 s -0.73 -8.26 -1.21 -9.95 c 1.25 1.44 2.94 4.38 4.03 7.14 s 2.27 7.04 2.71 10.06 s 0.55 4.92 0.19 6.94 c -1.42 -0.84 -2.3 -0.23 -2.69 0.06 s -1.22 1.21 -1.63 2.3 c -0.41 1.09 -0.55 2.71 -0.36 3.9 s 0.65 1.5 1.08 1.5 s 1.13 -0.23 2.63 -1.99 c 1.5 -1.76 2.57 -3.88 2.98 -4.96 s 1.03 -2.75 1.46 -4.73 c 0.41 3.53 -0.26 6.95 -1.13 9.28 s -2.21 4.76 -4.96 7.81 s -5.64 4.92 -8.64 5.59 c 0.42 -0.55 0.84 -1.51 1.06 -2.34 s 0.29 -1.8 0.29 -2.53 z M 19.58 47.29 c -1.51 -1.51 -2.57 -3.91 -2.57 -6.5 c 0 -1 0.16 -1.98 0.42 -2.86 c -0.13 -1.32 -0.04 -2.15 0.13 -3.17 c 0.19 -1.08 0.74 -2.42 1.12 -3.19 c -2.46 -0.79 -3.68 -2.3 -4.36 -3.97 s -0.89 -4.38 -0.79 -6.7 c 0.1 -2.33 0.48 -3.94 1.02 -5.47 c -1.46 1.73 -3.01 4.39 -3.72 6.02 s -1.4 4.22 -1.61 6.14 s -0.25 3.71 0.41 5.8 c 1.44 -0.89 2.33 -0.23 2.71 0.06 s 1.19 1.27 1.66 2.52 c 0.46 1.25 0.5 2.52 0.29 3.68 s -0.71 1.44 -1.06 1.44 c -0.36 0 -1.12 -0.17 -2.59 -1.94 s -2.63 -3.91 -3.04 -4.96 c -0.41 -1.02 -0.96 -2.52 -1.32 -4.49 c -0.44 3.43 -0.04 6.11 1.03 9.05 s 3.23 5.83 4.96 7.81 c 1.73 1.98 4.61 4.54 8.64 5.59 c -0.48 -0.92 -0.71 -1.51 -0.96 -2.44 s -0.31 -1.73 -0.38 -2.44 z"/>
</svg>