<svg xmlns="http://www.w3.org/2000/svg" viewBox="1 5 42 46">
    <path fill="#2196f3"
          d="M 8.96 34.5 l -5.58 -5.58 l 5.58 -5.58 l 5.58 5.58 l -5.58 5.58 z M 15.66 41.19 l -5.58 -5.58 l 5.58 -5.58 l 5.58 5.58 l -5.58 5.58 z M 22.35 47.88 l -5.58 -5.58 l 5.58 -5.58 l 5.58 5.58 l -5.58 5.58 z M 29.04 41.19 l -5.58 -5.58 l 5.58 -5.58 l 5.58 5.58 l -5.58 5.58 z M 35.73 34.5 l -5.58 -5.58 l 5.58 -5.58 l 5.58 5.58 l -5.58 5.58 z M 22.35 34.5 l -12.23 -12.23 l 12.23 -12.31 l 12.27 12.27 l -12.27 12.27 z"/>
</svg>